
<svg xmlns="http://www.w3.org/2000/svg" version="1.1" xmlns:xlink="http://www.w3.org/1999/xlink" preserveAspectRatio="none" x="0px" y="0px" width="544px" height="50px" viewBox="0 0 544 50">
<defs>
<g id="Layer0_0_MEMBER_0_FILL">
<path fill="#347CF8" stroke="none" d="
M 18 164
Q 10.55 164 5.3 169.25 0 174.55 0 182 0 189.45 5.3 194.7 10.55 200 18 200 25.45 200 30.7 194.7 36 189.45 36 182 36 174.55 30.7 169.25 25.45 164 18 164
M 23.4 168.85
Q 23.4 169.05 23.5 169.05 23.6 169.35 23.5 169.55 23.25 170 22.9 170.1 13.7 174 11.9 182.55
L 19.6 182.55
Q 20.3 182.75 20.45 183.1 20.55 183.2 20.45 183.65 20.4 183.75 20.4 183.85 19.6 186.7 17.65 187.15 17.35 187.25 16.85 187.25
L 6.05 187.25
Q 5.3 187.15 5.4 186.45 7.3 172.3 22.5 168.6 23.25 168.5 23.4 168.85
M 15.1 179.85
Q 15.1 179.8 15.1 179.6 16 176.95 17.85 176.3 18.3 176.2 18.65 176.2
L 29.5 176.2
Q 30.3 176.3 30.1 177 28.3 191.05 13.1 194.9 12.4 194.9 12.15 194.6 12.15 194.5 12.1 194.5 11.9 194.1 12.1 193.9 12.25 193.65 12.65 193.5 21.8 189.6 23.7 180.85
L 16 180.85
Q 15.35 180.85 15.1 180.4 15.05 180.4 15.1 179.85 Z"/>
</g>

<g id="Layer0_0_MEMBER_1_FILL">
<path fill="#347CF8" stroke="none" d="
M 139.15 191.25
Q 139.75 191.85 140.6 191.85 141.45 191.85 142.05 191.25 142.65 190.65 142.65 189.8 142.65 188.95 142.05 188.35 141.45 187.75 140.6 187.75 139.75 187.75 139.15 188.35 138.55 188.95 138.55 189.8 138.55 190.65 139.15 191.25
M 133.05 168.8
Q 133.65 169.4 134.5 169.4 135.35 169.4 135.9 168.8 136.55 168.2 136.55 167.35 136.55 166.5 135.9 165.9 135.35 165.35 134.5 165.35 133.65 165.35 133.05 165.9 132.45 166.5 132.45 167.35 132.45 168.2 133.05 168.8
M 126.35 171.45
Q 125.5 171.45 124.9 172.05 124.3 172.65 124.3 173.5 124.3 174.35 124.9 174.95 125.5 175.5 126.35 175.5
L 136.1 175.5 133.05 179 133.05 179.05
Q 132.95 179.15 132.85 179.25
L 124.8 188.45
Q 124.25 189.1 124.3 189.95 124.35 190.75 125 191.35 125.65 191.9 126.5 191.85 127.3 191.75 127.85 191.15
L 132.45 185.9 132.45 197.95
Q 132.45 198.8 133.05 199.4 133.65 200 134.5 200 135.35 200 135.95 199.4 136.55 198.8 136.55 197.95
L 136.55 181.25 142.15 174.85
Q 142.65 174.2 142.65 173.4 142.6 172.6 142 172 141.4 171.45 140.6 171.45
L 126.35 171.45
M 85.55 165.35
Q 84.7 165.35 84.1 165.9 83.55 166.5 83.55 167.35 83.55 168.2 84.1 168.8 84.7 169.4 85.55 169.4 86.4 169.4 87 168.8 87.6 168.2 87.6 167.35 87.6 166.5 87 165.9 86.4 165.35 85.55 165.35
M 114.2 169.4
Q 113.7 169.95 113.15 170.5 110.5 173.2 106.85 173.45 106.5 173.5 106.25 173.6 106 173.5 105.7 173.5 102.5 173.4 100.05 171.65 99.4 171.15 98.55 171.25 97.7 171.4 97.25 172.1 96.75 172.75 96.85 173.6 97 174.4 97.65 174.95 98.1 175.25 98.55 175.5
L 93.7 175.5
Q 92.9 175.5 92.3 176.1 92.15 176.25 92.1 176.35 91.7 176.85 91.7 177.55
L 91.7 191.85
Q 91.7 192.55 92.1 193.05 92.15 193.15 92.3 193.3 92.9 193.85 93.7 193.85 94.55 193.85 95.15 193.3 95.75 192.7 95.75 191.85
L 95.75 179.6 103.9 179.6 103.9 181.65 99.85 181.65
Q 99 181.65 98.4 182.25 97.8 182.85 97.8 183.7 97.8 184.5 98.4 185.15 99 185.7 99.85 185.7
L 103.9 185.7 103.9 187.75 99.85 187.75
Q 99 187.75 98.4 188.35 97.8 188.95 97.8 189.8 97.8 190.65 98.4 191.25 99 191.85 99.85 191.85
L 103.9 191.85
Q 103.9 192.7 104.5 193.3 105.1 193.85 105.95 193.85 106.8 193.85 107.4 193.3 108 192.7 108 191.85
L 112.05 191.85
Q 112.9 191.85 113.5 191.25 114.1 190.65 114.1 189.8 114.1 188.95 113.5 188.35 112.9 187.75 112.05 187.75
L 108 187.75 108 185.7 112.05 185.7
Q 112.9 185.7 113.5 185.15 114.1 184.5 114.1 183.7 114.1 182.85 113.5 182.25 112.9 181.65 112.05 181.65
L 108 181.65 108 179.6 116.15 179.6 116.15 191.85
Q 116.15 192.7 116.75 193.3 117.35 193.85 118.2 193.85 119.05 193.85 119.65 193.3 120.2 192.7 120.2 191.85
L 120.2 177.55
Q 120.2 176.75 119.65 176.1 119.05 175.5 118.2 175.5
L 113.4 175.5
Q 114.8 174.65 116.05 173.35
L 116.05 173.4
Q 118.25 171.15 119.9 168.45 120.3 167.8 120.2 167.05 120.1 166.3 119.5 165.8 118.9 165.35 118.2 165.35
L 93.7 165.35
Q 92.9 165.35 92.3 165.95 92.15 166.05 92.1 166.15 91.7 166.65 91.7 167.35 91.7 168.05 92.1 168.6 92.15 168.7 92.3 168.8 92.9 169.4 93.7 169.4
L 114.2 169.4
M 65.2 181.65
L 67.2 181.65
Q 67.35 181.65 67.5 181.65 70.6 181.7 72.1 183.15 73.45 184.7 73.35 187.65 73.35 187.7 73.35 187.75
L 73.35 193.85
Q 73.3 198.7 77.55 199.75 78.35 199.95 79.35 200 80.2 200 80.85 199.45 81.45 198.9 81.5 198.05 81.5 197.2 80.95 196.55 80.4 195.95 79.55 195.9 79 195.9 78.6 195.8 77.4 195.4 77.4 193.9
L 77.4 187.85
Q 77.65 182.85 75.05 180.3 72.65 177.65 67.5 177.55 67.35 177.55 67.2 177.55
L 63.15 177.55
Q 62.3 177.55 61.7 178.15 61.1 178.75 61.1 179.6
L 61.1 197.95
Q 61.1 198.8 61.7 199.4 62.3 200 63.15 200 64 200 64.6 199.4 65.2 198.8 65.2 197.95
L 65.2 181.65
M 79.45 173.4
Q 79.4 174.25 80 174.85 80.55 175.5 81.4 175.5 81.7 175.55 82 175.6 83.6 175.8 83.55 177.55
L 83.55 189.7
Q 83.3 194.7 85.9 197.25 88 199.5 92.1 199.9 92.75 200 93.45 200 93.6 200 93.7 200
L 120.2 200
Q 121.05 200 121.65 199.4 122.25 198.8 122.25 197.95 122.25 197.1 121.65 196.5 121.05 195.9 120.2 195.9
L 93.7 195.9
Q 93.6 195.9 93.45 195.9 92.75 195.9 92.1 195.8 90 195.5 88.85 194.4 87.5 192.85 87.6 189.9 87.6 189.85 87.6 189.8
L 87.6 177.55
Q 87.6 172.3 82.6 171.55 82.15 171.45 81.6 171.45 80.75 171.4 80.15 172 79.5 172.55 79.45 173.4
M 48.9 191.85
Q 48.9 192.7 49.45 193.3 50.05 193.85 50.9 193.85 51.75 193.85 52.35 193.3 52.95 192.7 52.95 191.85 52.95 191 52.35 190.4 51.75 189.8 50.9 189.8 50.05 189.8 49.45 190.4 48.9 191 48.9 191.85
M 63.15 171.45
Q 62.3 171.45 61.7 172.05 61.1 172.65 61.1 173.5 61.1 174.35 61.7 174.95 62.3 175.5 63.15 175.5
L 75.4 175.5
Q 76.2 175.5 76.8 174.95 77.4 174.35 77.4 173.5 77.4 172.65 76.8 172.05 76.2 171.45 75.4 171.45
L 63.15 171.45
M 70.7 165.9
Q 70.1 165.35 69.25 165.35 68.4 165.35 67.8 165.9 67.2 166.5 67.2 167.35 67.2 168.2 67.8 168.8 68.4 169.4 69.25 169.4 70.1 169.4 70.7 168.8 71.3 168.2 71.3 167.35 71.3 166.5 70.7 165.9
M 39.3 184.3
Q 38.7 184.85 38.7 185.7 38.7 186.55 39.3 187.15 39.9 187.75 40.75 187.75
L 42.75 187.75 42.75 197.95
Q 42.75 198.8 43.35 199.4 43.95 200 44.8 200 45.65 200 46.25 199.4 46.85 198.8 46.85 197.95
L 46.85 187.75 55 187.75 55 197.95
Q 55 198.8 55.6 199.4 56.2 200 57.05 200 57.9 200 58.5 199.4 59.05 198.8 59.05 197.95
L 59.05 181.75
Q 59.3 176.7 56.7 174.2 54.4 171.7 49.7 171.45
L 54.4 166.8
Q 55 166.15 55 165.35 55 164.5 54.4 163.9 53.8 163.3 52.95 163.3 52.1 163.3 51.5 163.9
L 43.35 172.05
Q 42.75 172.65 42.75 173.5
L 42.75 183.7 40.75 183.7
Q 39.9 183.7 39.3 184.3
M 55 181.65
L 55 183.7 46.85 183.7 46.85 175.5 48.9 175.5
Q 49 175.5 49.15 175.5 52.25 175.6 53.75 177.05 55.1 178.6 55 181.55 55 181.6 55 181.65
M 52.95 179.6
Q 52.95 178.75 52.35 178.15 51.75 177.55 50.9 177.55 50.05 177.55 49.45 178.15 48.9 178.75 48.9 179.6 48.9 180.45 49.45 181.05 50.05 181.65 50.9 181.65 51.75 181.65 52.35 181.05 52.95 180.45 52.95 179.6
M 167.1 197.95
Q 167.1 197.1 166.5 196.5 165.9 195.9 165.05 195.9
L 154.85 195.9 154.85 183.7 161 183.7
Q 161.85 183.7 162.45 183.1 163 182.5 163 181.65 163 180.8 162.45 180.2 161.85 179.6 161 179.6
L 154.85 179.6 154.85 167.35
Q 154.85 166.5 154.3 165.95 153.7 165.35 152.85 165.35 152 165.35 151.4 165.95 150.8 166.5 150.8 167.35
L 150.8 179.6 144.7 179.6
Q 143.85 179.6 143.25 180.2 142.65 180.8 142.65 181.65 142.65 182.5 143.25 183.1 143.85 183.7 144.7 183.7
L 150.8 183.7 150.8 195.9 140.6 195.9
Q 139.75 195.9 139.15 196.5 138.55 197.1 138.55 197.95 138.55 198.8 139.15 199.4 139.75 200 140.6 200
L 165.05 200
Q 165.9 200 166.5 199.4 167.1 198.8 167.1 197.95 Z"/>
</g>

<g id="Layer0_0_MEMBER_2_FILL">
<path fill="#347CFA" stroke="none" d="
M 319.55 178.6
Q 319.1 179.2 319.1 180.4
L 319.1 193.1 309.6 178.6 308.85 178.15
Q 308.35 178 307.9 178 307.15 178 306.55 178.3 305.9 178.75 305.6 179.35 305.3 179.95 305.3 181.05
L 305.3 197.55
Q 305.3 198.6 305.9 199.4 306.55 200 307.45 200 308.2 200 308.85 199.4 309.45 198.6 309.45 197.55
L 309.45 185 318 198.3 318.75 199.25
Q 319.25 199.55 319.7 199.85 320.15 200 320.75 200 323.05 200 323.05 197.1
L 323.05 180.4
Q 323.05 179.2 322.45 178.6 322 178 321.05 178 320.15 178 319.55 178.6
M 295.5 180.25
L 294.75 179.05
Q 294.45 178.6 293.85 178.3 293.4 178 292.3 178 291.55 178 290.95 178.3 290.3 178.6 290 179.2
L 289.25 180.6 282.85 197.1 282.7 198
Q 282.7 198.75 283.3 199.4 284.05 200 284.8 200 285.75 200 286.05 199.4 286.5 198.75 287.1 197.25
L 288.05 194.5 296.6 194.5 298.1 198.3 298.6 199.25
Q 298.9 199.55 299.35 199.85 299.65 200 300.1 200 301.05 200 301.65 199.4 302.25 198.6 302.25 198 302.25 197.25 301.65 195.7
L 295.5 180.25
M 292.3 182.4
L 295.5 191.3 289.25 191.3 292.3 182.4
M 262.5 178.6
Q 261.9 179.2 261.9 180.6
L 261.9 197.4
Q 261.9 198.6 262.5 199.4 263.1 200 264 200 264.95 200 265.7 199.4 266.15 198.6 266.15 197.4
L 266.15 190.05 275.5 190.05 275.5 197.4
Q 275.5 198.6 275.95 199.4 276.55 200 277.5 200 278.55 200 279 199.4 279.6 198.6 279.6 197.4
L 279.6 180.6
Q 279.6 179.2 279 178.6 278.55 178 277.5 178 276.55 178 275.95 178.6 275.5 179.2 275.5 180.6
L 275.5 186.55 266.15 186.55 266.15 180.6
Q 266.15 179.2 265.7 178.6 264.95 178 264 178 263.1 178 262.5 178.6
M 240.3 178.6
Q 239.55 179.2 239.55 180.6
L 239.55 190.8
Q 239.55 193.1 240.15 194.95 240.75 196.65 241.7 197.85 242.9 198.75 244.6 199.4 246.3 200 248.9 200 250.85 200 252.4 199.4 253.75 198.95 255.15 197.85 256.35 196.65 256.85 194.95 257.3 193.25 257.3 190.8
L 257.3 180.6
Q 257.3 179.2 256.7 178.6 256.05 178 255.15 178 254.25 178 253.6 178.6 253 179.2 253 180.6
L 253 191.15
Q 253 193.9 252.1 195.1 251 196.5 248.55 196.5 246.75 196.5 245.65 195.85 244.75 195.1 244.3 194.05 243.85 192.8 243.85 190.95
L 243.85 180.6
Q 243.85 179.2 243.2 178.6 242.75 178 241.7 178 240.75 178 240.3 178.6
M 221.05 178.6
Q 220.45 178 219.35 178 218.45 178 217.85 178.6 217.35 179.2 217.35 180.6
L 217.35 197.4
Q 217.35 198.6 217.85 199.4 218.45 200 219.35 200 220.45 200 221.05 199.4 221.65 198.6 221.65 197.4
L 221.65 190.05 230.7 190.05 230.7 197.4
Q 230.7 198.6 231.45 199.4 231.9 200 232.95 200 233.9 200 234.5 199.4 234.95 198.6 234.95 197.4
L 234.95 180.6
Q 234.95 179.2 234.5 178.6 233.9 178 232.95 178 231.9 178 231.45 178.6 230.7 179.2 230.7 180.6
L 230.7 186.55 221.65 186.55 221.65 180.6
Q 221.65 179.2 221.05 178.6
M 192.9 180.6
Q 192.9 179.2 192.45 178.6 191.7 178 190.75 178 189.85 178 189.25 178.6 188.75 179.2 188.75 180.6
L 188.75 197.4
Q 188.75 198.6 189.25 199.4 189.85 200 190.75 200 191.7 200 192.45 199.4 192.9 198.6 192.9 197.4
L 192.9 180.6
M 201.3 183.5
Q 201.3 182.4 202.25 181.8 203.3 181.05 205 181.05 206.8 181.05 207.6 181.65 208.35 182.25 208.95 183.65 209.4 184.4 209.9 184.85 210.2 185 210.8 185 211.7 185 212.3 184.55 212.8 183.95 212.8 183 212.8 182.25 212.3 181.35 211.85 180.6 210.95 179.65 210.05 178.9 208.65 178.45 207.3 178 205.3 178 202.85 178 201 178.6 199.3 179.35 198.25 180.9 197.35 182.1 197.35 183.8 197.35 185.8 198.25 187 199.15 188.2 200.7 189 202.25 189.6 204.5 190.2
L 207.3 190.8
Q 208.2 191.3 208.8 191.9 209.4 192.65 209.4 193.55 209.4 194.95 208.35 195.85 207.1 196.8 205.3 196.8 203.75 196.8 203 196.35 202.25 195.85 201.75 195.25 201.3 194.5 200.85 193.55 200.55 192.65 200.1 192.2 199.5 191.75 198.85 191.75 198.1 191.75 197.5 192.35 197.05 192.8 197.05 193.55 197.05 195.1 197.95 196.5 198.7 197.85 200.25 198.75 202.25 200 205.3 200 207.9 200 209.9 199.1 211.7 198.15 212.8 196.65 213.7 195.1 213.7 193.1 213.7 191.6 213.1 190.5 212.65 189.3 211.55 188.55 210.65 187.9 209.1 187.3 207.6 186.85 205.9 186.55
L 203.75 185.95 202.7 185.3
Q 202.1 185 201.6 184.55 201.3 184.1 201.3 183.5
M 174.4 178.6
Q 173.8 178 172.85 178 171.8 178 171.35 178.6 170.7 179.2 170.7 180.6
L 170.7 196.95
Q 170.7 198.3 171.35 198.95 171.95 199.55 173.3 199.55
L 183.55 199.55
Q 184.65 199.55 185.25 199.1 185.7 198.6 185.7 197.85 185.7 197.1 185.25 196.65 184.65 196 183.55 196
L 175 196 175 180.6
Q 175 179.2 174.4 178.6
M 384.1 179.35
Q 383.75 179.95 383.75 180.9
L 383.75 196.95
Q 383.75 198.3 384.4 198.95 385.15 199.55 386.35 199.55
L 398 199.55
Q 399.05 199.55 399.5 199.1 400 198.6 400 197.85 400 197.1 399.5 196.65 399.05 196.15 398 196.15
L 388.05 196.15 388.05 190.05 396.9 190.05
Q 397.85 190.05 398.45 189.6 398.9 189.15 398.9 188.4 398.9 187.75 398.45 187.3 397.85 186.85 396.9 186.85
L 388.05 186.85 388.05 181.65 397.7 181.65
Q 398.6 181.65 399.2 181.2 399.7 180.75 399.7 179.95 399.7 179.2 399.2 178.75 398.6 178.3 397.7 178.3
L 386.35 178.3
Q 385.6 178.3 385 178.6 384.4 178.9 384.1 179.35
M 350.9 196.15
Q 350.3 196.8 350.3 197.7 350.3 198.75 350.9 199.4 351.65 200 352.4 200 353.35 200 353.95 199.4 354.7 198.75 354.7 197.7 354.7 196.8 353.95 196.15 353.35 195.55 352.4 195.55 351.5 195.55 350.9 196.15
M 363.3 178.3
L 362.8 178.3
Q 359.3 178 359.15 180.9
L 359.15 197.55
Q 359.15 198.75 359.75 199.4 360.2 200 361.15 200 361.9 200 362.5 199.4 363.1 198.75 363.1 197.55
L 363.1 182.85 366.8 197.55 367.25 198.75
Q 367.55 199.4 368 199.55 368.5 200 369.25 200 370.3 200 370.9 199.4 371.4 198.95 371.7 198.3
L 375.5 182.85 375.5 197.55
Q 375.5 198.75 376.1 199.4 376.6 200 377.5 200 378.4 200 378.9 199.4 379.5 198.75 379.5 197.55
L 379.5 181.05
Q 379.35 178.3 376.3 178.3
L 375.35 178.3
Q 373.2 178.3 372.75 180.4
L 369.25 192.8 366.05 180.4
Q 365.25 178.45 363.3 178.3
M 334.85 181.8
Q 335.9 181.35 337.45 181.35 338.8 181.35 339.9 181.65 340.65 182.1 341.25 182.85
L 342.65 184.55
Q 342.8 185 343.4 185.3 343.7 185.45 344.15 185.45 345.1 185.45 345.7 184.85 346.15 184.4 346.15 183.65 346.15 182.85 345.7 181.8 345.1 180.9 344.15 179.95 343.1 179.05 341.55 178.6 339.9 178 337.75 178 335.15 178 333.15 178.75 331 179.5 329.65 180.9 328.25 182.25 327.5 184.4 326.7 186.4 326.7 189 326.7 191.45 327.5 193.55 328.25 195.55 329.65 196.95 331 198.45 333 199.25 335 200 337.6 200 339.55 200 341.4 199.4 343.1 199.1 345.1 197.85 346.9 196.8 346.9 193.55
L 346.9 190.8
Q 346.9 189.9 346.45 189.3 346.15 188.7 345.4 188.55 344.9 188.4 344 188.4
L 339.1 188.4
Q 338.35 188.4 337.9 188.85 337.3 189.3 337.3 190.05 337.3 190.8 337.9 191.3 338.5 191.6 339.55 191.6
L 342.95 191.6 342.95 193.9
Q 342.8 195.55 340.95 196 339.1 196.65 337.6 196.65 334.5 196.65 332.85 194.65 331 192.65 331 188.85 331 187.15 331.45 185.6 332.1 184.25 332.85 183.35 333.6 182.25 334.85 181.8 Z"/>
</g>
</defs>

<g transform="matrix( 1.3623809814453125, 0, 0, 1.362396240234375, 0,-222.5) ">
<use xlink:href="#Layer0_0_MEMBER_0_FILL"/>
</g>

<g transform="matrix( 1.3623809814453125, 0, 0, 1.362396240234375, 0,-222.5) ">
<use xlink:href="#Layer0_0_MEMBER_1_FILL"/>
</g>

<g transform="matrix( 1.3623809814453125, 0, 0, 1.362396240234375, 0,-222.5) ">
<use xlink:href="#Layer0_0_MEMBER_2_FILL"/>
</g>
</svg>
