
<svg xmlns="http://www.w3.org/2000/svg" version="1.1" xmlns:xlink="http://www.w3.org/1999/xlink" preserveAspectRatio="none" x="0px" y="0px" width="40px" height="40px" viewBox="0 0 40 40">
<defs>
<g id="Layer0_0_FILL">
<path fill="#347CF8" stroke="none" d="
M 40 20
Q 40 11.75 34.15 5.85 28.3 0 20 0 11.75 0 5.85 5.85 0 11.75 0 20 0 28.3 5.85 34.15 11.75 40 20 40 28.3 40 34.15 34.15 40 28.3 40 20
M 26 5.4
Q 26 5.6 26.15 5.6 26.25 6 26.15 6.2 25.85 6.65 25.45 6.8 15.25 11.15 13.2 20.65
L 21.8 20.65
Q 22.6 20.85 22.75 21.2 22.85 21.35 22.75 21.85 22.65 22 22.65 22.1 21.8 25.25 19.6 25.75 19.3 25.85 18.75 25.85
L 6.75 25.85
Q 5.9 25.75 6 25 8.1 9.25 25 5.15 25.85 5 26 5.4
M 32.75 13.6
Q 33.65 13.7 33.45 14.5 31.45 30.05 14.55 34.35 13.8 34.35 13.5 34 13.5 33.95 13.45 33.95 13.2 33.45 13.45 33.25 13.6 32.95 14.1 32.8 24.2 28.45 26.35 18.75
L 17.75 18.75
Q 17.05 18.75 16.8 18.25 16.7 18.25 16.8 17.65 16.8 17.55 16.8 17.4 17.75 14.4 19.85 13.7 20.35 13.6 20.7 13.6
L 32.75 13.6 Z"/>
</g>
</defs>

<g transform="matrix( 1, 0, 0, 1, 0,0) ">
<use xlink:href="#Layer0_0_FILL"/>
</g>
</svg>
